# xmcd
#
# Track frame offsets: 
#        150
#        12462
#        26890
#        36190
#        50547
#        64777
#        77930
#        92585
#        105340
#        122627
#        136500
#        149900
#        162687
#        173072
#
# Disc length: 2475 seconds
#
# Revision: 0
# Processed by: cddbd v1.5.1PL0 Copyright (c) Steve Scherf et al.
# Submitted via: ExactAudioCopy v0.95a4
#
DISCID=c109a90e
DTITLE=Various Artist - Joias Sertanejas
DYEAR=1900
DGENRE=Country
TTITLE0=O machado e a motosserra - Eli Silva and Ze goiano
TTITLE1=Linda Ciganinha - Gino and Geno
TTITLE2=Morena bonita - Gino and Geno
TTITLE3=Viola viva - Ronaldo Viola and Joao Carvalho
TTITLE4=Saudade de minha terra - Belmonte and Amarai
TTITLE5=So quero te dizer - As Mineirinhas
TTITLE6=Fazenda sao Francisco - Zico and Zeca
TTITLE7=Pagode em Brasilia - Eli Silva and Ze Goiano
TTITLE8=Do Oiapoque ao Chui - Teodoro and Sampaio
TTITLE9=Saco de Ouro - Mococa e Paraiso
TTITLE10=Canoeiro - Carreiro and Carreirinho
TTITLE11=Canarinho do peito amarelo - Tibagi and Miltinho
TTITLE12=Recordacoes - Irmas Galvao
TTITLE13=Mae de carvao - Liu and Leu
EXTD=
EXTT0=
EXTT1=
EXTT2=
EXTT3=
EXTT4=
EXTT5=
EXTT6=
EXTT7=
EXTT8=
EXTT9=
EXTT10=
EXTT11=
EXTT12=
EXTT13=
PLAYORDER=
